solid csg.js
facet normal 0.0 0.0 1.0
outer loop
vertex 10.719969749450684 10.167969703674316 5.099999904632568
vertex 10.718990325927734 10.22012996673584 5.099999904632568
vertex 10.71753978729248 10.150710105895996 5.099999904632568
endloop
endfacet
facet normal 0.0 -0.0 1.0
outer loop
vertex 10.719969749450684 10.167969703674316 5.099999904632568
vertex 10.721019744873047 10.185359954833984 5.099999904632568
vertex 10.718990325927734 10.22012996673584 5.099999904632568
endloop
endfacet
facet normal 0.0 0.0 1.0
outer loop
vertex 10.718990325927734 10.22012996673584 5.099999904632568
vertex 10.721019744873047 10.185359954833984 5.099999904632568
vertex 10.72068977355957 10.202790260314941 5.099999904632568
endloop
endfacet
facet normal 0.0 0.0 1.0
outer loop
vertex 10.718990325927734 10.22012996673584 5.099999904632568
vertex 10.715909957885742 10.237279891967773 5.099999904632568
vertex 10.71753978729248 10.150710105895996 5.099999904632568
endloop
endfacet
facet normal 0.0 0.0 1.0
outer loop
vertex 10.71753978729248 10.150710105895996 5.099999904632568
vertex 10.715909957885742 10.237279891967773 5.099999904632568
vertex 10.7114896774292 10.25413990020752 5.099999904632568
endloop
endfacet
facet normal 0.0 0.0 1.0
outer loop
vertex 10.705750465393066 10.270589828491211 5.099999904632568
vertex 10.71753978729248 10.150710105895996 5.099999904632568
vertex 10.7114896774292 10.25413990020752 5.099999904632568
endloop
endfacet
facet normal 0.0 0.0 1.0
outer loop
vertex 10.705750465393066 10.270589828491211 5.099999904632568
vertex 10.69871997833252 10.286540031433105 5.099999904632568
vertex 10.71753978729248 10.150710105895996 5.099999904632568
endloop
endfacet
facet normal 0.0 0.0 1.0
outer loop
vertex 10.71753978729248 10.150710105895996 5.099999904632568
vertex 10.69871997833252 10.286540031433105 5.099999904632568
vertex 10.690460205078125 10.3018798828125 5.099999904632568
endloop
endfacet
facet normal 0.0 0.0 1.0
outer loop
vertex 10.680999755859375 10.316519737243652 5.099999904632568
vertex 10.71753978729248 10.150710105895996 5.099999904632568
vertex 10.690460205078125 10.3018798828125 5.099999904632568
endloop
endfacet
facet normal 0.0 0.0 1.0
outer loop
vertex 10.680999755859375 10.316519737243652 5.099999904632568
vertex 10.670419692993164 10.33036994934082 5.099999904632568
vertex 10.71753978729248 10.150710105895996 5.099999904632568
endloop
endfacet
facet normal 0.0 0.0 1.0
outer loop
vertex 10.71753978729248 10.150710105895996 5.099999904632568
vertex 10.670419692993164 10.33036994934082 5.099999904632568
vertex 10.658769607543945 10.343330383300781 5.099999904632568
endloop
endfacet
facet normal 0.0 0.0 1.0
outer loop
vertex 10.646140098571777 10.355330467224121 5.099999904632568
vertex 10.71753978729248 10.150710105895996 5.099999904632568
vertex 10.658769607543945 10.343330383300781 5.099999904632568
endloop
endfacet
facet normal 0.0 0.0 1.0
outer loop
vertex 10.646140098571777 10.355330467224121 5.099999904632568
vertex 10.632590293884277 10.366299629211426 5.099999904632568
vertex 10.71753978729248 10.150710105895996 5.099999904632568
endloop
endfacet
facet normal 0.0 0.0 1.0
outer loop
vertex 10.71753978729248 10.150710105895996 5.099999904632568
vertex 10.632590293884277 10.366299629211426 5.099999904632568
vertex 10.618220329284668 10.376150131225586 5.099999904632568
endloop
endfacet
facet normal 0.0 0.0 1.0
outer loop
vertex 10.603110313415527 10.38484001159668 5.099999904632568
vertex 10.71753978729248 10.150710105895996 5.099999904632568
vertex 10.618220329284668 10.376150131225586 5.099999904632568
endloop
endfacet
facet normal 0.0 0.0 1.0
outer loop
vertex 10.603110313415527 10.38484001159668 5.099999904632568
vertex 10.587369918823242 10.39231014251709 5.099999904632568
vertex 10.71753978729248 10.150710105895996 5.099999904632568
endloop
endfacet
facet normal 0.0 0.0 1.0
outer loop
vertex 10.71753978729248 10.150710105895996 5.099999904632568
vertex 10.587369918823242 10.39231014251709 5.099999904632568
vertex 10.571080207824707 10.398500442504883 5.099999904632568
endloop
endfacet
facet normal 0.0 0.0 1.0
outer loop
vertex 10.554349899291992 10.403389930725098 5.099999904632568
vertex 10.71753978729248 10.150710105895996 5.099999904632568
vertex 10.571080207824707 10.398500442504883 5.099999904632568
endloop
endfacet
facet normal 0.0 0.0 1.0
outer loop
vertex 10.554349899291992 10.403389930725098 5.099999904632568
vertex 10.5372896194458 10.406940460205078 5.099999904632568
vertex 10.71753978729248 10.150710105895996 5.099999904632568
endloop
endfacet
facet normal 0.0 0.0 1.0
outer loop
vertex 10.71753978729248 10.150710105895996 5.099999904632568
vertex 10.5372896194458 10.406940460205078 5.099999904632568
vertex 10.520000457763672 10.409119606018066 5.099999904632568
endloop
endfacet
facet normal 0.0 0.0 1.0
outer loop
vertex 10.50259017944336 10.409939765930176 5.099999904632568
vertex 10.71753978729248 10.150710105895996 5.099999904632568
vertex 10.520000457763672 10.409119606018066 5.099999904632568
endloop
endfacet
facet normal 0.0 0.0 1.0
outer loop
vertex 10.50259017944336 10.409939765930176 5.099999904632568
vertex 10.485179901123047 10.409370422363281 5.099999904632568
vertex 10.71753978729248 10.150710105895996 5.099999904632568
endloop
endfacet
facet normal 0.0 0.0 1.0
outer loop
vertex 10.71753978729248 10.150710105895996 5.099999904632568
vertex 10.485179901123047 10.409370422363281 5.099999904632568
vertex 10.467860221862793 10.40742015838623 5.099999904632568
endloop
endfacet
facet normal -0.0 0.0 1.0
outer loop
vertex 10.450750350952148 10.404109954833984 5.099999904632568
vertex 10.71753978729248 10.150710105895996 5.099999904632568
vertex 10.467860221862793 10.40742015838623 5.099999904632568
endloop
endfacet
facet normal 0.0 0.0 1.0
outer loop
vertex 10.450750350952148 10.404109954833984 5.099999904632568
vertex 10.4339599609375 10.399450302124023 5.099999904632568
vertex 10.71753978729248 10.150710105895996 5.099999904632568
endloop
endfacet
facet normal 0.0 0.0 1.0
outer loop
vertex 10.71753978729248 10.150710105895996 5.099999904632568
vertex 10.4339599609375 10.399450302124023 5.099999904632568
vertex 10.417579650878906 10.39348030090332 5.099999904632568
endloop
endfacet
facet normal -0.0 0.0 1.0
outer loop
vertex 10.401729583740234 10.386240005493164 5.099999904632568
vertex 10.71753978729248 10.150710105895996 5.099999904632568
vertex 10.417579650878906 10.39348030090332 5.099999904632568
endloop
endfacet
facet normal 0.0 0.0 1.0
outer loop
vertex 10.401729583740234 10.386240005493164 5.099999904632568
vertex 10.386509895324707 10.37775993347168 5.099999904632568
vertex 10.71753978729248 10.150710105895996 5.099999904632568
endloop
endfacet
facet normal 0.0 0.0 1.0
outer loop
vertex 10.71753978729248 10.150710105895996 5.099999904632568
vertex 10.386509895324707 10.37775993347168 5.099999904632568
vertex 10.371999740600586 10.3681001663208 5.099999904632568
endloop
endfacet
facet normal -0.0 0.0 1.0
outer loop
vertex 10.358309745788574 10.357330322265625 5.099999904632568
vertex 10.71753978729248 10.150710105895996 5.099999904632568
vertex 10.371999740600586 10.3681001663208 5.099999904632568
endloop
endfacet
facet normal 0.0 0.0 1.0
outer loop
vertex 10.358309745788574 10.357330322265625 5.099999904632568
vertex 10.345499992370605 10.345499992370605 5.099999904632568
vertex 10.71753978729248 10.150710105895996 5.099999904632568
endloop
endfacet
facet normal 0.0 0.0 1.0
outer loop
vertex 10.71753978729248 10.150710105895996 5.099999904632568
vertex 10.345499992370605 10.345499992370605 5.099999904632568
vertex 10.430919647216797 8.569080352783203 5.099999904632568
endloop
endfacet
facet normal 0.0 0.0 1.0
outer loop
vertex 10.430919647216797 8.569080352783203 5.099999904632568
vertex 10.345499992370605 10.345499992370605 5.099999904632568
vertex 9.416271209716797 8.251805305480957 5.099999904632568
endloop
endfacet
facet normal 0.0 -0.0 1.0
outer loop
vertex 9.45989990234375 8.212263107299805 5.099999904632568
vertex 10.430919647216797 8.569080352783203 5.099999904632568
vertex 9.416271209716797 8.251805305480957 5.099999904632568
endloop
endfacet
facet normal -0.0 0.0 1.0
outer loop
vertex 9.45989990234375 8.212263107299805 5.099999904632568
vertex 9.507192611694336 8.1771879196167 5.099999904632568
vertex 10.430919647216797 8.569080352783203 5.099999904632568
endloop
endfacet
facet normal 0.0 0.0 1.0
outer loop
vertex 10.430919647216797 8.569080352783203 5.099999904632568
vertex 9.507192611694336 8.1771879196167 5.099999904632568
vertex 9.557697296142578 8.146917343139648 5.099999904632568
endloop
endfacet
facet normal 0.0 -0.0 1.0
outer loop
vertex 9.61092472076416 8.121742248535156 5.099999904632568
vertex 10.430919647216797 8.569080352783203 5.099999904632568
vertex 9.557697296142578 8.146917343139648 5.099999904632568
endloop
endfacet
facet normal -0.0 0.0 1.0
outer loop
vertex 9.61092472076416 8.121742248535156 5.099999904632568
vertex 9.666364669799805 8.10190486907959 5.099999904632568
vertex 10.430919647216797 8.569080352783203 5.099999904632568
endloop
endfacet
facet normal 0.0 0.0 1.0
outer loop
vertex 10.430919647216797 8.569080352783203 5.099999904632568
vertex 9.666364669799805 8.10190486907959 5.099999904632568
vertex 9.723481178283691 8.087597846984863 5.099999904632568
endloop
endfacet
facet normal 0.0 -0.0 1.0
outer loop
vertex 9.78172492980957 8.078959465026855 5.099999904632568
vertex 10.430919647216797 8.569080352783203 5.099999904632568
vertex 9.723481178283691 8.087597846984863 5.099999904632568
endloop
endfacet
facet normal -0.0 0.0 1.0
outer loop
vertex 9.78172492980957 8.078959465026855 5.099999904632568
vertex 9.840536117553711 8.076068878173828 5.099999904632568
vertex 10.430919647216797 8.569080352783203 5.099999904632568
endloop
endfacet
facet normal 0.0 0.0 1.0
outer loop
vertex 10.430919647216797 8.569080352783203 5.099999904632568
vertex 9.840536117553711 8.076068878173828 5.099999904632568
vertex 9.892651557922363 8.078336715698242 5.099999904632568
endloop
endfacet
facet normal 0.0 -0.0 1.0
outer loop
vertex 9.944374084472656 8.085123062133789 5.099999904632568
vertex 10.430919647216797 8.569080352783203 5.099999904632568
vertex 9.892651557922363 8.078336715698242 5.099999904632568
endloop
endfacet
facet normal 0.0 0.0 1.0
outer loop
vertex 9.944374084472656 8.085123062133789 5.099999904632568
vertex 9.995311737060547 8.096376419067383 5.099999904632568
vertex 10.430919647216797 8.569080352783203 5.099999904632568
endloop
endfacet
facet normal 0.0 0.0 1.0
outer loop
vertex 10.430919647216797 8.569080352783203 5.099999904632568
vertex 9.995311737060547 8.096376419067383 5.099999904632568
vertex 10.045080184936523 8.112010955810547 5.099999904632568
endloop
endfacet
facet normal 0.0 -0.0 1.0
outer loop
vertex 10.093299865722656 8.13191032409668 5.099999904632568
vertex 10.430919647216797 8.569080352783203 5.099999904632568
vertex 10.045080184936523 8.112010955810547 5.099999904632568
endloop
endfacet
facet normal 0.0 0.0 1.0
outer loop
vertex 10.093299865722656 8.13191032409668 5.099999904632568
vertex 10.139610290527344 8.155921936035156 5.099999904632568
vertex 10.430919647216797 8.569080352783203 5.099999904632568
endloop
endfacet
facet normal 0.0 0.0 1.0
outer loop
vertex 10.430919647216797 8.569080352783203 5.099999904632568
vertex 10.139610290527344 8.155921936035156 5.099999904632568
vertex 10.183659553527832 8.18386459350586 5.099999904632568
endloop
endfacet
facet normal 0.0 -0.0 1.0
outer loop
vertex 10.225119590759277 8.215530395507812 5.099999904632568
vertex 10.430919647216797 8.569080352783203 5.099999904632568
vertex 10.183659553527832 8.18386459350586 5.099999904632568
endloop
endfacet
facet normal 0.0 0.0 1.0
outer loop
vertex 10.225119590759277 8.215530395507812 5.099999904632568
vertex 10.263669967651367 8.250675201416016 5.099999904632568
vertex 10.430919647216797 8.569080352783203 5.099999904632568
endloop
endfacet
facet normal 0.0 0.0 1.0
outer loop
vertex 10.430919647216797 8.569080352783203 5.099999904632568
vertex 10.263669967651367 8.250675201416016 5.099999904632568
vertex 10.299019813537598 8.289036750793457 5.099999904632568
endloop
endfacet
facet normal 0.0 -0.0 1.0
outer loop
vertex 10.330900192260742 8.330323219299316 5.099999904632568
vertex 10.430919647216797 8.569080352783203 5.099999904632568
vertex 10.299019813537598 8.289036750793457 5.099999904632568
endloop
endfacet
facet normal 0.0 0.0 1.0
outer loop
vertex 10.330900192260742 8.330323219299316 5.099999904632568
vertex 10.35908031463623 8.374223709106445 5.099999904632568
vertex 10.430919647216797 8.569080352783203 5.099999904632568
endloop
endfacet
facet normal 0.0 0.0 1.0
outer loop
vertex 10.430919647216797 8.569080352783203 5.099999904632568
vertex 10.35908031463623 8.374223709106445 5.099999904632568
vertex 10.383339881896973 8.420406341552734 5.099999904632568
endloop
endfacet
facet normal 0.0 -0.0 1.0
outer loop
vertex 10.40349006652832 8.468520164489746 5.099999904632568
vertex 10.430919647216797 8.569080352783203 5.099999904632568
vertex 10.383339881896973 8.420406341552734 5.099999904632568
endloop
endfacet
facet normal 0.0 0.0 1.0
outer loop
vertex 10.40349006652832 8.468520164489746 5.099999904632568
vertex 10.419400215148926 8.518203735351562 5.099999904632568
vertex 10.430919647216797 8.569080352783203 5.099999904632568
endloop
endfacet
facet normal 0.0 0.0 1.0
outer loop
vertex 10.345499992370605 10.345499992370605 5.099999904632568
vertex 7.908758163452148 7.908758163452148 5.099999904632568
vertex 9.416271209716797 8.251805305480957 5.099999904632568
endloop
endfacet
facet normal 0.0 0.0 1.0
outer loop
vertex 9.416271209716797 8.251805305480957 5.099999904632568
vertex 7.908758163452148 7.908758163452148 5.099999904632568
vertex 8.105032920837402 6.9405670166015625 5.099999904632568
endloop
endfacet
facet normal 0.0 0.0 1.0
outer loop
vertex 8.105032920837402 6.9405670166015625 5.099999904632568
vertex 7.908758163452148 7.908758163452148 5.099999904632568
vertex 8.036846160888672 6.878766059875488 5.099999904632568
endloop
endfacet
facet normal 0.0 0.0 1.0
outer loop
vertex 8.036846160888672 6.878766059875488 5.099999904632568
vertex 7.908758163452148 7.908758163452148 5.099999904632568
vertex 7.962930202484131 6.823945999145508 5.099999904632568
endloop
endfacet
facet normal 0.0 0.0 1.0
outer loop
vertex 7.962930202484131 6.823945999145508 5.099999904632568
vertex 7.908758163452148 7.908758163452148 5.099999904632568
vertex 7.88399600982666 6.77663516998291 5.099999904632568
endloop
endfacet
facet normal 0.0 -0.0 1.0
outer loop
vertex 7.88399600982666 6.77663516998291 5.099999904632568
vertex 7.908758163452148 7.908758163452148 5.099999904632568
vertex 7.80080509185791 6.737287998199463 5.099999904632568
endloop
endfacet
facet normal 0.0 -0.0 1.0
outer loop
vertex 7.80080509185791 6.737287998199463 5.099999904632568
vertex 7.908758163452148 7.908758163452148 5.099999904632568
vertex 7.714158058166504 6.7062859535217285 5.099999904632568
endloop
endfacet
facet normal 0.0 -0.0 1.0
outer loop
vertex 7.714158058166504 6.7062859535217285 5.099999904632568
vertex 7.908758163452148 7.908758163452148 5.099999904632568
vertex 7.624889850616455 6.683925151824951 5.099999904632568
endloop
endfacet
facet normal 0.0 -0.0 1.0
outer loop
vertex 7.624889850616455 6.683925151824951 5.099999904632568
vertex 7.908758163452148 7.908758163452148 5.099999904632568
vertex 7.533860206604004 6.670422077178955 5.099999904632568
endloop
endfacet
facet normal 0.0 -0.0 1.0
outer loop
vertex 7.533860206604004 6.670422077178955 5.099999904632568
vertex 7.908758163452148 7.908758163452148 5.099999904632568
vertex 7.441944122314453 6.66590690612793 5.099999904632568
endloop
endfacet
facet normal 0.0 -0.0 1.0
outer loop
vertex 7.441944122314453 6.66590690612793 5.099999904632568
vertex 7.908758163452148 7.908758163452148 5.099999904632568
vertex 7.339578151702881 6.671511173248291 5.099999904632568
endloop
endfacet
facet normal 0.0 -0.0 1.0
outer loop
vertex 7.339578151702881 6.671511173248291 5.099999904632568
vertex 7.908758163452148 7.908758163452148 5.099999904632568
vertex 7.238434791564941 6.6882548332214355 5.099999904632568
endloop
endfacet
facet normal 0.0 -0.0 1.0
outer loop
vertex 7.238434791564941 6.6882548332214355 5.099999904632568
vertex 7.908758163452148 7.908758163452148 5.099999904632568
vertex 7.139725208282471 6.715940952301025 5.099999904632568
endloop
endfacet
facet normal 0.0 -0.0 1.0
outer loop
vertex 7.139725208282471 6.715940952301025 5.099999904632568
vertex 7.908758163452148 7.908758163452148 5.099999904632568
vertex 7.0446271896362305 6.754237174987793 5.099999904632568
endloop
endfacet
facet normal 0.0 -0.0 1.0
outer loop
vertex 7.0446271896362305 6.754237174987793 5.099999904632568
vertex 7.908758163452148 7.908758163452148 5.099999904632568
vertex 6.954277992248535 6.802684783935547 5.099999904632568
endloop
endfacet
facet normal 0.0 -0.0 1.0
outer loop
vertex 6.954277992248535 6.802684783935547 5.099999904632568
vertex 7.908758163452148 7.908758163452148 5.099999904632568
vertex 6.869757175445557 6.8607048988342285 5.099999904632568
endloop
endfacet
facet normal 0.0 -0.0 1.0
outer loop
vertex 6.869757175445557 6.8607048988342285 5.099999904632568
vertex 7.908758163452148 7.908758163452148 5.099999904632568
vertex 6.792074203491211 6.927606105804443 5.099999904632568
endloop
endfacet
facet normal 0.0 -0.0 1.0
outer loop
vertex 6.792074203491211 6.927606105804443 5.099999904632568
vertex 7.908758163452148 7.908758163452148 5.099999904632568
vertex 6.722158908843994 7.002586841583252 5.099999904632568
endloop
endfacet
facet normal 0.0 -0.0 1.0
outer loop
vertex 6.722158908843994 7.002586841583252 5.099999904632568
vertex 7.908758163452148 7.908758163452148 5.099999904632568
vertex 6.660847187042236 7.084752082824707 5.099999904632568
endloop
endfacet
facet normal 0.0 -0.0 1.0
outer loop
vertex 6.660847187042236 7.084752082824707 5.099999904632568
vertex 7.908758163452148 7.908758163452148 5.099999904632568
vertex 6.608870983123779 7.1731181144714355 5.099999904632568
endloop
endfacet
facet normal 0.0 -0.0 1.0
outer loop
vertex 6.608870983123779 7.1731181144714355 5.099999904632568
vertex 7.908758163452148 7.908758163452148 5.099999904632568
vertex 6.5668511390686035 7.266630172729492 5.099999904632568
endloop
endfacet
facet normal 0.0 -0.0 1.0
outer loop
vertex 6.5668511390686035 7.266630172729492 5.099999904632568
vertex 7.908758163452148 7.908758163452148 5.099999904632568
vertex 6.535289764404297 7.364171028137207 5.099999904632568
endloop
endfacet
facet normal 0.0 -0.0 1.0
outer loop
vertex 6.535289764404297 7.364171028137207 5.099999904632568
vertex 7.908758163452148 7.908758163452148 5.099999904632568
vertex 6.514565944671631 7.464573860168457 5.099999904632568
endloop
endfacet
facet normal 0.0 -0.0 1.0
outer loop
vertex 6.514565944671631 7.464573860168457 5.099999904632568
vertex 7.908758163452148 7.908758163452148 5.099999904632568
vertex 6.504924774169922 7.566638946533203 5.099999904632568
endloop
endfacet
facet normal 0.0 0.0 1.0
outer loop
vertex 6.504924774169922 7.566638946533203 5.099999904632568
vertex 7.908758163452148 7.908758163452148 5.099999904632568
vertex 6.506484031677246 7.6691460609436035 5.099999904632568
endloop
endfacet
facet normal 0.0 0.0 1.0
outer loop
vertex 6.506484031677246 7.6691460609436035 5.099999904632568
vertex 7.908758163452148 7.908758163452148 5.099999904632568
vertex 6.519223213195801 7.770871162414551 5.099999904632568
endloop
endfacet
facet normal 0.0 0.0 1.0
outer loop
vertex 6.519223213195801 7.770871162414551 5.099999904632568
vertex 7.908758163452148 7.908758163452148 5.099999904632568
vertex 7.068117141723633 10.799759864807129 5.099999904632568
endloop
endfacet
facet normal 0.0 0.0 1.0
outer loop
vertex 7.068117141723633 10.799759864807129 5.099999904632568
vertex 7.908758163452148 7.908758163452148 5.099999904632568
vertex 8.389275550842285 10.56033992767334 5.099999904632568
endloop
endfacet
facet normal 0.0 0.0 1.0
outer loop
vertex 8.39824104309082 10.601730346679688 5.099999904632568
vertex 7.068117141723633 10.799759864807129 5.099999904632568
vertex 8.389275550842285 10.56033992767334 5.099999904632568
endloop
endfacet
facet normal 0.0 -0.0 1.0
outer loop
vertex 8.39824104309082 10.601730346679688 5.099999904632568
vertex 8.409998893737793 10.642419815063477 5.099999904632568
vertex 7.068117141723633 10.799759864807129 5.099999904632568
endloop
endfacet
facet normal -0.0 0.0 1.0
outer loop
vertex 7.068117141723633 10.799759864807129 5.099999904632568
vertex 8.409998893737793 10.642419815063477 5.099999904632568
vertex 7.112602233886719 10.990500450134277 5.099999904632568
endloop
endfacet
facet normal 0.0 0.0 1.0
outer loop
vertex 7.112602233886719 10.990500450134277 5.099999904632568
vertex 8.409998893737793 10.642419815063477 5.099999904632568
vertex 8.424495697021484 10.682220458984375 5.099999904632568
endloop
endfacet
facet normal -0.0 0.0 1.0
outer loop
vertex 7.175851821899414 11.175869941711426 5.099999904632568
vertex 8.424495697021484 10.682220458984375 5.099999904632568
vertex 7.257238864898682 11.354029655456543 5.099999904632568
endloop
endfacet
facet normal 0.0 0.0 1.0
outer loop
vertex 7.175851821899414 11.175869941711426 5.099999904632568
vertex 7.112602233886719 10.990500450134277 5.099999904632568
vertex 8.424495697021484 10.682220458984375 5.099999904632568
endloop
endfacet
facet normal 0.0 -0.0 1.0
outer loop
vertex 8.424495697021484 10.682220458984375 5.099999904632568
vertex 8.441664695739746 10.720930099487305 5.099999904632568
vertex 7.257238864898682 11.354029655456543 5.099999904632568
endloop
endfacet
facet normal -0.0 0.0 1.0
outer loop
vertex 7.257238864898682 11.354029655456543 5.099999904632568
vertex 8.441664695739746 10.720930099487305 5.099999904632568
vertex 7.355954170227051 11.523200035095215 5.099999904632568
endloop
endfacet
facet normal 0.0 0.0 1.0
outer loop
vertex 7.355954170227051 11.523200035095215 5.099999904632568
vertex 8.441664695739746 10.720930099487305 5.099999904632568
vertex 8.461424827575684 10.758390426635742 5.099999904632568
endloop
endfacet
facet normal 0.0 0.0 1.0
outer loop
vertex 7.471016883850098 11.681699752807617 5.099999904632568
vertex 8.461424827575684 10.758390426635742 5.099999904632568
vertex 8.483686447143555 10.79442024230957 5.099999904632568
endloop
endfacet
facet normal 0.0 0.0 1.0
outer loop
vertex 7.601284980773926 11.827969551086426 5.099999904632568
vertex 8.483686447143555 10.79442024230957 5.099999904632568
vertex 8.508344650268555 10.82886028289795 5.099999904632568
endloop
endfacet
facet normal 0.0 0.0 1.0
outer loop
vertex 7.745463848114014 11.960539817810059 5.099999904632568
vertex 8.508344650268555 10.82886028289795 5.099999904632568
vertex 8.535287857055664 10.861539840698242 5.099999904632568
endloop
endfacet
facet normal 0.0 0.0 1.0
outer loop
vertex 8.564390182495117 10.89231014251709 5.099999904632568
vertex 7.745463848114014 11.960539817810059 5.099999904632568
vertex 8.535287857055664 10.861539840698242 5.099999904632568
endloop
endfacet
facet normal 0.0 0.0 1.0
outer loop
vertex 8.564390182495117 10.89231014251709 5.099999904632568
vertex 7.902122974395752 12.078100204467773 5.099999904632568
vertex 7.745463848114014 11.960539817810059 5.099999904632568
endloop
endfacet
facet normal 0.0 -0.0 1.0
outer loop
vertex 8.564390182495117 10.89231014251709 5.099999904632568
vertex 8.595516204833984 10.921030044555664 5.099999904632568
vertex 7.902122974395752 12.078100204467773 5.099999904632568
endloop
endfacet
facet normal 0.0 0.0 1.0
outer loop
vertex 7.902122974395752 12.078100204467773 5.099999904632568
vertex 8.595516204833984 10.921030044555664 5.099999904632568
vertex 8.628521919250488 10.947569847106934 5.099999904632568
endloop
endfacet
facet normal 0.0 0.0 1.0
outer loop
vertex 8.06970500946045 12.179490089416504 5.099999904632568
vertex 8.628521919250488 10.947569847106934 5.099999904632568
vertex 8.663256645202637 10.971810340881348 5.099999904632568
endloop
endfacet
facet normal 0.0 0.0 1.0
outer loop
vertex 8.246545791625977 12.263689994812012 5.099999904632568
vertex 8.663256645202637 10.971810340881348 5.099999904632568
vertex 8.69955825805664 10.993619918823242 5.099999904632568
endloop
endfacet
facet normal 0.0 0.0 1.0
outer loop
vertex 8.737257957458496 11.012920379638672 5.099999904632568
vertex 8.246545791625977 12.263689994812012 5.099999904632568
vertex 8.69955825805664 10.993619918823242 5.099999904632568
endloop
endfacet
facet normal 0.0 0.0 1.0
outer loop
vertex 8.737257957458496 11.012920379638672 5.099999904632568
vertex 8.430890083312988 12.329870223999023 5.099999904632568
vertex 8.246545791625977 12.263689994812012 5.099999904632568
endloop
endfacet
facet normal 0.0 -0.0 1.0
outer loop
vertex 8.737257957458496 11.012920379638672 5.099999904632568
vertex 8.77618408203125 11.029609680175781 5.099999904632568
vertex 8.430890083312988 12.329870223999023 5.099999904632568
endloop
endfacet
facet normal 0.0 0.0 1.0
outer loop
vertex 8.430890083312988 12.329870223999023 5.099999904632568
vertex 8.77618408203125 11.029609680175781 5.099999904632568
vertex 8.816152572631836 11.043620109558105 5.099999904632568
endloop
endfacet
facet normal 0.0 0.0 1.0
outer loop
vertex 8.856983184814453 11.054880142211914 5.099999904632568
vertex 8.430890083312988 12.329870223999023 5.099999904632568
vertex 8.816152572631836 11.043620109558105 5.099999904632568
endloop
endfacet
facet normal 0.0 0.0 1.0
outer loop
vertex 8.856983184814453 11.054880142211914 5.099999904632568
vertex 8.620905876159668 12.37738037109375 5.099999904632568
vertex 8.430890083312988 12.329870223999023 5.099999904632568
endloop
endfacet
facet normal 0.0 -0.0 1.0
outer loop
vertex 8.856983184814453 11.054880142211914 5.099999904632568
vertex 8.898483276367188 11.063340187072754 5.099999904632568
vertex 8.620905876159668 12.37738037109375 5.099999904632568
endloop
endfacet
facet normal 0.0 0.0 1.0
outer loop
vertex 8.620905876159668 12.37738037109375 5.099999904632568
vertex 8.898483276367188 11.063340187072754 5.099999904632568
vertex 8.940462112426758 11.068949699401855 5.099999904632568
endloop
endfacet
facet normal 0.0 0.0 1.0
outer loop
vertex 8.814706802368164 12.405730247497559 5.099999904632568
vertex 8.940462112426758 11.068949699401855 5.099999904632568
vertex 8.982726097106934 11.071700096130371 5.099999904632568
endloop
endfacet
facet normal 0.0 0.0 1.0
outer loop
vertex 9.010368347167969 12.414660453796387 5.099999904632568
vertex 8.982726097106934 11.071700096130371 5.099999904632568
vertex 9.20594596862793 12.404069900512695 5.099999904632568
endloop
endfacet
facet normal 0.0 0.0 1.0
outer loop
vertex 9.010368347167969 12.414660453796387 5.099999904632568
vertex 8.814706802368164 12.405730247497559 5.099999904632568
vertex 8.982726097106934 11.071700096130371 5.099999904632568
endloop
endfacet
facet normal 0.0 0.0 1.0
outer loop
vertex 9.775565147399902 12.197429656982422 5.099999904632568
vertex 9.727556228637695 12.233240127563477 5.099999904632568
vertex 9.025078773498535 11.07157039642334 5.099999904632568
endloop
endfacet
facet normal 0.0 0.0 1.0
outer loop
vertex 9.821059226989746 12.158470153808594 5.099999904632568
vertex 9.025078773498535 11.07157039642334 5.099999904632568
vertex 9.0673246383667 11.068559646606445 5.099999904632568
endloop
endfacet
facet normal 0.0 0.0 1.0
outer loop
vertex 9.863832473754883 12.11655044555664 5.099999904632568
vertex 9.0673246383667 11.068559646606445 5.099999904632568
vertex 9.90368938446045 12.071840286254883 5.099999904632568
endloop
endfacet
facet normal 0.0 0.0 1.0
outer loop
vertex 9.863832473754883 12.11655044555664 5.099999904632568
vertex 9.821059226989746 12.158470153808594 5.099999904632568
vertex 9.0673246383667 11.068559646606445 5.099999904632568
endloop
endfacet
facet normal 0.0 0.0 1.0
outer loop
vertex 9.90368938446045 12.071840286254883 5.099999904632568
vertex 9.0673246383667 11.068559646606445 5.099999904632568
vertex 9.940450668334961 12.024550437927246 5.099999904632568
endloop
endfacet
facet normal 0.0 0.0 1.0
outer loop
vertex 9.940450668334961 12.024550437927246 5.099999904632568
vertex 9.0673246383667 11.068559646606445 5.099999904632568
vertex 9.109269142150879 11.062689781188965 5.099999904632568
endloop
endfacet
facet normal 0.0 0.0 1.0
outer loop
vertex 9.973952293395996 11.974900245666504 5.099999904632568
vertex 9.109269142150879 11.062689781188965 5.099999904632568
vertex 10.004039764404297 11.923110008239746 5.099999904632568
endloop
endfacet
facet normal 0.0 0.0 1.0
outer loop
vertex 9.973952293395996 11.974900245666504 5.099999904632568
vertex 9.940450668334961 12.024550437927246 5.099999904632568
vertex 9.109269142150879 11.062689781188965 5.099999904632568
endloop
endfacet
facet normal 0.0 -0.0 1.0
outer loop
vertex 9.150716781616211 11.053979873657227 5.099999904632568
vertex 10.053449630737305 11.81406021118164 5.099999904632568
vertex 9.109269142150879 11.062689781188965 5.099999904632568
endloop
endfacet
facet normal -0.0 0.0 1.0
outer loop
vertex 9.150716781616211 11.053979873657227 5.099999904632568
vertex 9.191476821899414 11.04246997833252 5.099999904632568
vertex 10.053449630737305 11.81406021118164 5.099999904632568
endloop
endfacet
facet normal 0.0 0.0 1.0
outer loop
vertex 10.053449630737305 11.81406021118164 5.099999904632568
vertex 9.191476821899414 11.04246997833252 5.099999904632568
vertex 9.23136043548584 11.028220176696777 5.099999904632568
endloop
endfacet
facet normal 0.0 -0.0 1.0
outer loop
vertex 9.270181655883789 11.011289596557617 5.099999904632568
vertex 10.053449630737305 11.81406021118164 5.099999904632568
vertex 9.23136043548584 11.028220176696777 5.099999904632568
endloop
endfacet
facet normal -0.0 0.0 1.0
outer loop
vertex 9.270181655883789 11.011289596557617 5.099999904632568
vertex 9.30776309967041 10.99176025390625 5.099999904632568
vertex 10.053449630737305 11.81406021118164 5.099999904632568
endloop
endfacet
facet normal 0.0 0.0 1.0
outer loop
vertex 10.053449630737305 11.81406021118164 5.099999904632568
vertex 9.30776309967041 10.99176025390625 5.099999904632568
vertex 10.072540283203125 11.75728988647461 5.099999904632568
endloop
endfacet
facet normal 0.0 0.0 1.0
outer loop
vertex 10.072540283203125 11.75728988647461 5.099999904632568
vertex 9.30776309967041 10.99176025390625 5.099999904632568
vertex 10.087779998779297 11.699370384216309 5.099999904632568
endloop
endfacet
facet normal 0.0 0.0 1.0
outer loop
vertex 10.087779998779297 11.699370384216309 5.099999904632568
vertex 9.30776309967041 10.99176025390625 5.099999904632568
vertex 10.099089622497559 11.640549659729004 5.099999904632568
endloop
endfacet
facet normal 0.0 0.0 1.0
outer loop
vertex 10.099089622497559 11.640549659729004 5.099999904632568
vertex 9.30776309967041 10.99176025390625 5.099999904632568
vertex 10.095569610595703 11.342450141906738 5.099999904632568
endloop
endfacet
facet normal 0.0 0.0 1.0
outer loop
vertex 10.106419563293457 11.581110000610352 5.099999904632568
vertex 10.095569610595703 11.342450141906738 5.099999904632568
vertex 10.109740257263184 11.521300315856934 5.099999904632568
endloop
endfacet
facet normal 0.0 0.0 1.0
outer loop
vertex 10.106419563293457 11.581110000610352 5.099999904632568
vertex 10.099089622497559 11.640549659729004 5.099999904632568
vertex 10.095569610595703 11.342450141906738 5.099999904632568
endloop
endfacet
facet normal 0.0 -0.0 1.0
outer loop
vertex 9.927884101867676 10.962309837341309 5.099999904632568
vertex 9.962550163269043 11.011150360107422 5.099999904632568
vertex 9.3439302444458 10.969719886779785 5.099999904632568
endloop
endfacet
facet normal 0.0 -0.0 1.0
outer loop
vertex 9.378515243530273 10.945269584655762 5.099999904632568
vertex 9.927884101867676 10.962309837341309 5.099999904632568
vertex 9.3439302444458 10.969719886779785 5.099999904632568
endloop
endfacet
facet normal -0.0 0.0 1.0
outer loop
vertex 9.378515243530273 10.945269584655762 5.099999904632568
vertex 9.890012741088867 10.915909767150879 5.099999904632568
vertex 9.927884101867676 10.962309837341309 5.099999904632568
endloop
endfacet
facet normal 0.0 0.0 1.0
outer loop
vertex 9.378515243530273 10.945269584655762 5.099999904632568
vertex 9.411357879638672 10.918530464172363 5.099999904632568
vertex 9.890012741088867 10.915909767150879 5.099999904632568
endloop
endfacet
facet normal 0.0 0.0 1.0
outer loop
vertex 9.890012741088867 10.915909767150879 5.099999904632568
vertex 9.411357879638672 10.918530464172363 5.099999904632568
vertex 9.442307472229004 10.889619827270508 5.099999904632568
endloop
endfacet
facet normal 0.0 0.0 1.0
outer loop
vertex 9.849108695983887 10.872150421142578 5.099999904632568
vertex 9.442307472229004 10.889619827270508 5.099999904632568
vertex 9.654438972473145 10.67747974395752 5.099999904632568
endloop
endfacet
facet normal 0.0 -0.0 1.0
outer loop
vertex 9.849108695983887 10.872150421142578 5.099999904632568
vertex 9.890012741088867 10.915909767150879 5.099999904632568
vertex 9.442307472229004 10.889619827270508 5.099999904632568
endloop
endfacet
facet normal 0.0 -0.0 1.0
outer loop
vertex 9.962550163269043 11.011150360107422 5.099999904632568
vertex 9.993853569030762 11.062219619750977 5.099999904632568
vertex 9.3439302444458 10.969719886779785 5.099999904632568
endloop
endfacet
facet normal 0.0 -0.0 1.0
outer loop
vertex 9.3439302444458 10.969719886779785 5.099999904632568
vertex 9.993853569030762 11.062219619750977 5.099999904632568
vertex 9.30776309967041 10.99176025390625 5.099999904632568
endloop
endfacet
facet normal 0.0 0.0 1.0
outer loop
vertex 9.30776309967041 10.99176025390625 5.099999904632568
vertex 9.993853569030762 11.062219619750977 5.099999904632568
vertex 10.021659851074219 11.115269660949707 5.099999904632568
endloop
endfacet
facet normal 0.0 0.0 1.0
outer loop
vertex 10.045829772949219 11.170069694519043 5.099999904632568
vertex 9.30776309967041 10.99176025390625 5.099999904632568
vertex 10.021659851074219 11.115269660949707 5.099999904632568
endloop
endfacet
facet normal 0.0 -0.0 1.0
outer loop
vertex 10.045829772949219 11.170069694519043 5.099999904632568
vertex 10.06626033782959 11.226369857788086 5.099999904632568
vertex 9.30776309967041 10.99176025390625 5.099999904632568
endloop
endfacet
facet normal 0.0 0.0 1.0
outer loop
vertex 9.30776309967041 10.99176025390625 5.099999904632568
vertex 10.06626033782959 11.226369857788086 5.099999904632568
vertex 10.082869529724121 11.283920288085938 5.099999904632568
endloop
endfacet
facet normal 0.0 0.0 1.0
outer loop
vertex 10.095569610595703 11.342450141906738 5.099999904632568
vertex 9.30776309967041 10.99176025390625 5.099999904632568
vertex 10.082869529724121 11.283920288085938 5.099999904632568
endloop
endfacet
facet normal 0.0 0.0 1.0
outer loop
vertex 10.095569610595703 11.342450141906738 5.099999904632568
vertex 10.104299545288086 11.401700019836426 5.099999904632568
vertex 10.109740257263184 11.521300315856934 5.099999904632568
endloop
endfacet
facet normal 0.0 0.0 1.0
outer loop
vertex 10.109740257263184 11.521300315856934 5.099999904632568
vertex 10.104299545288086 11.401700019836426 5.099999904632568
vertex 10.109029769897461 11.461409568786621 5.099999904632568
endloop
endfacet
facet normal 0.0 0.0 1.0
outer loop
vertex 10.053449630737305 11.81406021118164 5.099999904632568
vertex 10.030579566955566 11.869420051574707 5.099999904632568
vertex 9.109269142150879 11.062689781188965 5.099999904632568
endloop
endfacet
facet normal 0.0 0.0 1.0
outer loop
vertex 9.109269142150879 11.062689781188965 5.099999904632568
vertex 10.030579566955566 11.869420051574707 5.099999904632568
vertex 10.004039764404297 11.923110008239746 5.099999904632568
endloop
endfacet
facet normal 0.0 0.0 1.0
outer loop
vertex 9.821059226989746 12.158470153808594 5.099999904632568
vertex 9.775565147399902 12.197429656982422 5.099999904632568
vertex 9.025078773498535 11.07157039642334 5.099999904632568
endloop
endfacet
facet normal 0.0 0.0 1.0
outer loop
vertex 9.727556228637695 12.233240127563477 5.099999904632568
vertex 9.677248001098633 12.26574993133545 5.099999904632568
vertex 9.025078773498535 11.07157039642334 5.099999904632568
endloop
endfacet
facet normal 0.0 -0.0 1.0
outer loop
vertex 9.025078773498535 11.07157039642334 5.099999904632568
vertex 9.677248001098633 12.26574993133545 5.099999904632568
vertex 8.982726097106934 11.071700096130371 5.099999904632568
endloop
endfacet
facet normal 0.0 0.0 1.0
outer loop
vertex 8.982726097106934 11.071700096130371 5.099999904632568
vertex 9.677248001098633 12.26574993133545 5.099999904632568
vertex 9.624869346618652 12.2947998046875 5.099999904632568
endloop
endfacet
facet normal 0.0 0.0 1.0
outer loop
vertex 9.57065486907959 12.320260047912598 5.099999904632568
vertex 8.982726097106934 11.071700096130371 5.099999904632568
vertex 9.624869346618652 12.2947998046875 5.099999904632568
endloop
endfacet
facet normal 0.0 0.0 1.0
outer loop
vertex 9.57065486907959 12.320260047912598 5.099999904632568
vertex 9.514852523803711 12.342020034790039 5.099999904632568
vertex 8.982726097106934 11.071700096130371 5.099999904632568
endloop
endfacet
facet normal 0.0 0.0 1.0
outer loop
vertex 8.982726097106934 11.071700096130371 5.099999904632568
vertex 9.514852523803711 12.342020034790039 5.099999904632568
vertex 9.457715034484863 12.359979629516602 5.099999904632568
endloop
endfacet
facet normal 0.0 0.0 1.0
outer loop
vertex 9.399497985839844 12.374059677124023 5.099999904632568
vertex 8.982726097106934 11.071700096130371 5.099999904632568
vertex 9.457715034484863 12.359979629516602 5.099999904632568
endloop
endfacet
facet normal 0.0 0.0 1.0
outer loop
vertex 9.399497985839844 12.374059677124023 5.099999904632568
vertex 9.20594596862793 12.404069900512695 5.099999904632568
vertex 8.982726097106934 11.071700096130371 5.099999904632568
endloop
endfacet
facet normal 0.0 0.0 1.0
outer loop
vertex 8.814706802368164 12.405730247497559 5.099999904632568
vertex 8.620905876159668 12.37738037109375 5.099999904632568
vertex 8.940462112426758 11.068949699401855 5.099999904632568
endloop
endfacet
facet normal 0.0 0.0 1.0
outer loop
vertex 8.246545791625977 12.263689994812012 5.099999904632568
vertex 8.06970500946045 12.179490089416504 5.099999904632568
vertex 8.663256645202637 10.971810340881348 5.099999904632568
endloop
endfacet
facet normal 0.0 0.0 1.0
outer loop
vertex 8.06970500946045 12.179490089416504 5.099999904632568
vertex 7.902122974395752 12.078100204467773 5.099999904632568
vertex 8.628521919250488 10.947569847106934 5.099999904632568
endloop
endfacet
facet normal 0.0 0.0 1.0
outer loop
vertex 7.745463848114014 11.960539817810059 5.099999904632568
vertex 7.601284980773926 11.827969551086426 5.099999904632568
vertex 8.508344650268555 10.82886028289795 5.099999904632568
endloop
endfacet
facet normal 0.0 0.0 1.0
outer loop
vertex 7.601284980773926 11.827969551086426 5.099999904632568
vertex 7.471016883850098 11.681699752807617 5.099999904632568
vertex 8.483686447143555 10.79442024230957 5.099999904632568
endloop
endfacet
facet normal 0.0 0.0 1.0
outer loop
vertex 7.471016883850098 11.681699752807617 5.099999904632568
vertex 7.355954170227051 11.523200035095215 5.099999904632568
vertex 8.461424827575684 10.758390426635742 5.099999904632568
endloop
endfacet
endsolid csg.js
